<svg width="31" height="31" viewBox="0 0 31 31" fill="none" xmlns="http://www.w3.org/2000/svg">
<g clip-path="url(#clip0_1_2211)">
<path d="M15.5004 0C6.954 0 0.000366211 6.95363 0.000366211 15.5C0.000366211 24.0464 6.954 31 15.5004 31C24.0467 31 31.0004 24.0464 31.0004 15.5C31.0004 6.95363 24.0467 0 15.5004 0ZM24.1633 11.4211L14.2573 21.2494C13.6746 21.8321 12.7422 21.8709 12.1207 21.2882L6.87631 16.51C6.25475 15.9273 6.2159 14.9561 6.75976 14.3346C7.34247 13.713 8.31365 13.6742 8.9352 14.2569L13.0918 18.0639L21.949 9.20677C22.5705 8.58521 23.5417 8.58521 24.1633 9.20677C24.7848 9.82832 24.7848 10.7995 24.1633 11.4211Z" fill="black"/>
</g>
<defs>
<clipPath id="clip0_1_2211">
<rect width="31" height="31" fill="white" transform="translate(0.000366211)"/>
</clipPath>
</defs>
</svg>
