<svg width="22" height="22" viewBox="0 0 22 22" fill="none" xmlns="http://www.w3.org/2000/svg">
<path fill-rule="evenodd" clip-rule="evenodd" d="M13.5603 15.985C12.3888 17.0181 10.8506 17.646 9.16669 17.646C5.49911 17.646 2.52086 14.6677 2.52086 11.0002C2.52086 7.33258 5.49911 4.35433 9.16669 4.35433C10.8506 4.35433 12.3888 4.98225 13.5603 6.01533C13.8444 6.2665 14.2799 6.23991 14.531 5.95483C14.7822 5.67066 14.7547 5.23616 14.4705 4.98499C13.0561 3.73649 11.1989 2.97933 9.16669 2.97933C4.74011 2.97933 1.14586 6.57358 1.14586 11.0002C1.14586 15.4267 4.74011 19.021 9.16669 19.021C11.1989 19.021 13.0561 18.2638 14.4705 17.0153C14.7547 16.7642 14.7822 16.3297 14.531 16.0455C14.2799 15.7604 13.8444 15.7338 13.5603 15.985Z" fill="black"/>
<path fill-rule="evenodd" clip-rule="evenodd" d="M10.2208 15.0337V11.367C10.2208 11.1846 10.1484 11.0095 10.0192 10.8812L7.08582 7.94786C6.81816 7.67928 6.38183 7.67928 6.11416 7.94786C5.84558 8.21553 5.84558 8.65186 6.11416 8.91952L8.84583 11.6521V15.0337C8.84583 15.4132 9.15383 15.7212 9.53333 15.7212C9.91283 15.7212 10.2208 15.4132 10.2208 15.0337Z" fill="black"/>
<path fill-rule="evenodd" clip-rule="evenodd" d="M20.1667 13.521H14.6667C14.2872 13.521 13.9792 13.829 13.9792 14.2085C13.9792 14.588 14.2872 14.896 14.6667 14.896H20.1667C20.5462 14.896 20.8542 14.588 20.8542 14.2085C20.8542 13.829 20.5462 13.521 20.1667 13.521Z" fill="black"/>
<path fill-rule="evenodd" clip-rule="evenodd" d="M19.25 10.3125H13.75C13.3705 10.3125 13.0625 10.6205 13.0625 11C13.0625 11.3795 13.3705 11.6875 13.75 11.6875H19.25C19.6295 11.6875 19.9375 11.3795 19.9375 11C19.9375 10.6205 19.6295 10.3125 19.25 10.3125Z" fill="black"/>
<path fill-rule="evenodd" clip-rule="evenodd" d="M18.3334 7.10449H12.8334C12.4539 7.10449 12.1459 7.41249 12.1459 7.79199C12.1459 8.17149 12.4539 8.47949 12.8334 8.47949H18.3334C18.7129 8.47949 19.0209 8.17149 19.0209 7.79199C19.0209 7.41249 18.7129 7.10449 18.3334 7.10449Z" fill="black"/>
</svg>
